<svg xmlns="http://www.w3.org/2000/svg" viewBox="0 0 800 600">
  <!-- Background with subtle gradient -->
  <defs>
    <linearGradient id="bg-gradient" x1="0%" y1="0%" x2="100%" y2="100%">
      <stop offset="0%" style="stop-color:#f9f9f9;stop-opacity:1" />
      <stop offset="100%" style="stop-color:#f0f0f0;stop-opacity:1" />
    </linearGradient>
    
    <!-- Subtle Grid Pattern -->
    <pattern id="grid" width="20" height="20" patternUnits="userSpaceOnUse">
      <path d="M 20 0 L 0 0 0 20" fill="none" stroke="#e0e0e0" stroke-width="0.5"/>
    </pattern>
    
    <!-- Component Box Shadow -->
    <filter id="drop-shadow" x="-20%" y="-20%" width="140%" height="140%">
      <feGaussianBlur in="SourceAlpha" stdDeviation="3" />
      <feOffset dx="2" dy="2" result="offsetblur" />
      <feComponentTransfer>
        <feFuncA type="linear" slope="0.2" />
      </feComponentTransfer>
      <feMerge>
        <feMergeNode />
        <feMergeNode in="SourceGraphic" />
      </feMerge>
    </filter>
    
    <!-- Arrowhead Markers -->
    <marker id="arrowhead" markerWidth="10" markerHeight="7" refX="9" refY="3.5" orient="auto">
      <polygon points="0 0, 10 3.5, 0 7" fill="#505050"/>
    </marker>
    <marker id="arrowhead-start" markerWidth="10" markerHeight="7" refX="0" refY="3.5" orient="auto">
      <polygon points="10 0, 0 3.5, 10 7" fill="#505050"/>
    </marker>
  </defs>
  
  <!-- Background with grid -->
  <rect width="800" height="600" fill="url(#bg-gradient)" />
  <rect width="800" height="600" fill="url(#grid)" />

  <!-- Components with improved styling -->
  <!-- Backend Box -->
  <rect x="150" y="100" width="150" height="100" fill="white" stroke="#4a6fa5" stroke-width="2" rx="8" ry="8" filter="url(#drop-shadow)"/>
  <text x="225" y="150" font-family="Arial, sans-serif" font-size="22" text-anchor="middle" font-weight="bold" fill="#4a6fa5">Backend</text>

  <!-- Frontend Box -->
  <rect x="150" y="350" width="150" height="100" fill="white" stroke="#4a6fa5" stroke-width="2" rx="8" ry="8" filter="url(#drop-shadow)"/>
  <text x="225" y="400" font-family="Arial, sans-serif" font-size="22" text-anchor="middle" font-weight="bold" fill="#4a6fa5">Frontend</text>

  <!-- Gumnut Box -->
  <rect x="550" y="200" width="150" height="100" fill="white" stroke="#4a6fa5" stroke-width="2" rx="8" ry="8" filter="url(#drop-shadow)"/>
  <text x="625" y="250" font-family="Arial, sans-serif" font-size="22" text-anchor="middle" font-weight="bold" fill="#4a6fa5">Gumnut</text>

  <!-- Connection Arrows -->
  <!-- GET Arrow with curve - reversed direction -->
  <path d="M 175 200 C 175 250, 175 300, 175 350" fill="none" stroke="#505050" stroke-width="2.5" marker-end="url(#arrowhead)" stroke-linecap="round"/>
  <rect x="145" y="270" width="52" height="22" rx="11" ry="11" fill="#f0f5ff" stroke="#4a6fa5" stroke-width="1"/>
  <text x="171" y="285" font-family="Arial, sans-serif" font-size="14" text-anchor="middle" fill="#4a6fa5" font-weight="bold">GET</text>
  
  <!-- POST Arrow with curve - reversed direction -->
  <path d="M 225 350 C 225 300, 225 250, 225 200" fill="none" stroke="#505050" stroke-width="2.5" marker-end="url(#arrowhead)" stroke-linecap="round"/>
  <rect x="195" y="230" width="60" height="22" rx="11" ry="11" fill="#f0f5ff" stroke="#4a6fa5" stroke-width="1"/>
  <text x="225" y="245" font-family="Arial, sans-serif" font-size="14" text-anchor="middle" fill="#4a6fa5" font-weight="bold">POST</text>

  <!-- JWT Arrow with curve -->
  <path d="M 300 150 C 340 150, 340 300, 275 350" fill="none" stroke="#505050" stroke-width="2.5" marker-end="url(#arrowhead)" stroke-linecap="round"/>
  <rect x="310" y="260" width="52" height="22" rx="11" ry="11" fill="#f0f5ff" stroke="#4a6fa5" stroke-width="1"/>
  <text x="336" y="275" font-family="Arial, sans-serif" font-size="14" text-anchor="middle" fill="#4a6fa5" font-weight="bold">JWT</text>

  <!-- SOCKET Arrow (bidirectional) with curve -->
  <path d="M 300 380 C 380 380, 480 320, 550 250" fill="none" stroke="#505050" stroke-width="2.5" marker-end="url(#arrowhead)" marker-start="url(#arrowhead-start)" stroke-linecap="round"/>
  <rect x="415" y="320" width="80" height="22" rx="11" ry="11" fill="#f0f5ff" stroke="#4a6fa5" stroke-width="1"/>
  <text x="455" y="335" font-family="Arial, sans-serif" font-size="14" text-anchor="middle" fill="#4a6fa5" font-weight="bold">SOCKET</text>
  
  <!-- Title -->
  <text x="400" y="50" font-family="Arial, sans-serif" font-size="24" text-anchor="middle" font-weight="bold" fill="#333">Gumnut Connection Flow</text>
</svg>
