<?xml version="1.0" encoding="UTF-8" standalone="no"?>
<!-- Created with Inkscape (http://www.inkscape.org/) -->

<svg
   width="20.710903mm"
   height="38.905975mm"
   viewBox="0 0 20.710903 38.905975"
   version="1.1"
   id="svg1"
   xmlns="http://www.w3.org/2000/svg"
   xmlns:svg="http://www.w3.org/2000/svg">
  <defs
     id="defs1">
    <clipPath
       clipPathUnits="userSpaceOnUse"
       id="clipPath2377">
      <path
         d="M 0,841.89 H 595.276 V 0 H 0 Z"
         transform="translate(-59.675804,-450.45011)"
         id="path2377" />
    </clipPath>
    <clipPath
       clipPathUnits="userSpaceOnUse"
       id="clipPath2379">
      <path
         d="M 0,841.89 H 595.276 V 0 H 0 Z"
         transform="translate(-56.052599,-477.33811)"
         id="path2379" />
    </clipPath>
    <clipPath
       clipPathUnits="userSpaceOnUse"
       id="clipPath2381">
      <path
         d="M 0,841.89 H 595.276 V 0 H 0 Z"
         transform="translate(-71.789002,-480.44211)"
         id="path2381" />
    </clipPath>
    <clipPath
       clipPathUnits="userSpaceOnUse"
       id="clipPath2383">
      <path
         d="M 0,841.89 H 595.276 V 0 H 0 Z"
         transform="translate(-71.789002,-480.44211)"
         id="path2383" />
    </clipPath>
    <clipPath
       clipPathUnits="userSpaceOnUse"
       id="clipPath2389">
      <path
         d="M 0,841.89 H 595.276 V 0 H 0 Z"
         transform="translate(-38.574403,-429.29911)"
         id="path2389" />
    </clipPath>
    <clipPath
       clipPathUnits="userSpaceOnUse"
       id="clipPath2391">
      <path
         d="M 0,841.89 H 595.276 V 0 H 0 Z"
         transform="translate(-93.897802,-443.57761)"
         id="path2391" />
    </clipPath>
    <clipPath
       clipPathUnits="userSpaceOnUse"
       id="clipPath2393">
      <path
         d="M 0,841.89 H 595.276 V 0 H 0 Z"
         transform="translate(-77.085599,-463.70221)"
         id="path2393" />
    </clipPath>
    <clipPath
       clipPathUnits="userSpaceOnUse"
       id="clipPath2395">
      <path
         d="M 0,841.89 H 595.276 V 0 H 0 Z"
         transform="translate(-80.7609,-513.88511)"
         id="path2395" />
    </clipPath>
    <clipPath
       clipPathUnits="userSpaceOnUse"
       id="clipPath2397">
      <path
         d="M 0,841.89 H 595.276 V 0 H 0 Z"
         transform="translate(-79.346204,-515.41631)"
         id="path2397" />
    </clipPath>
    <clipPath
       clipPathUnits="userSpaceOnUse"
       id="clipPath2399">
      <path
         d="M 0,841.89 H 595.276 V 0 H 0 Z"
         transform="translate(-70.497104,-516.55822)"
         id="path2399" />
    </clipPath>
    <clipPath
       clipPathUnits="userSpaceOnUse"
       id="clipPath2401">
      <path
         d="M 0,841.89 H 595.276 V 0 H 0 Z"
         transform="translate(-83.310502,-481.11931)"
         id="path2401" />
    </clipPath>
    <clipPath
       clipPathUnits="userSpaceOnUse"
       id="clipPath2403">
      <path
         d="M 0,841.89 H 595.276 V 0 H 0 Z"
         transform="translate(-72.493904,-511.32371)"
         id="path2403" />
    </clipPath>
    <clipPath
       clipPathUnits="userSpaceOnUse"
       id="clipPath2405">
      <path
         d="M 0,841.89 H 595.276 V 0 H 0 Z"
         transform="translate(-62.151202,-518.46641)"
         id="path2405" />
    </clipPath>
    <clipPath
       clipPathUnits="userSpaceOnUse"
       id="clipPath2407">
      <path
         d="M 0,841.89 H 595.276 V 0 H 0 Z"
         transform="translate(-64.530104,-518.65661)"
         id="path2407" />
    </clipPath>
    <clipPath
       clipPathUnits="userSpaceOnUse"
       id="clipPath2409">
      <path
         d="M 0,841.89 H 595.276 V 0 H 0 Z"
         transform="translate(-83.209402,-481.05301)"
         id="path2409" />
    </clipPath>
    <clipPath
       clipPathUnits="userSpaceOnUse"
       id="clipPath2411">
      <path
         d="M 0,841.89 H 595.276 V 0 H 0 Z"
         transform="translate(-79.827599,-426.55201)"
         id="path2411" />
    </clipPath>
    <clipPath
       clipPathUnits="userSpaceOnUse"
       id="clipPath2413">
      <path
         d="M 0,841.89 H 595.276 V 0 H 0 Z"
         transform="translate(-74.383799,-438.48441)"
         id="path2413" />
    </clipPath>
    <clipPath
       clipPathUnits="userSpaceOnUse"
       id="clipPath2415">
      <path
         d="M 0,841.89 H 595.276 V 0 H 0 Z"
         transform="translate(-86.4825,-428.38161)"
         id="path2415" />
    </clipPath>
    <clipPath
       clipPathUnits="userSpaceOnUse"
       id="clipPath2417">
      <path
         d="M 0,841.89 H 595.276 V 0 H 0 Z"
         transform="translate(-56.084099,-476.83711)"
         id="path2417" />
    </clipPath>
    <clipPath
       clipPathUnits="userSpaceOnUse"
       id="clipPath2419">
      <path
         d="M 0,841.89 H 595.276 V 0 H 0 Z"
         transform="translate(-55.444701,-476.95761)"
         id="path2419" />
    </clipPath>
    <clipPath
       clipPathUnits="userSpaceOnUse"
       id="clipPath2421">
      <path
         d="M 0,841.89 H 595.276 V 0 H 0 Z"
         transform="translate(-68.075302,-443.93241)"
         id="path2421" />
    </clipPath>
    <clipPath
       clipPathUnits="userSpaceOnUse"
       id="clipPath2423">
      <path
         d="M 0,841.89 H 595.276 V 0 H 0 Z"
         transform="translate(-67.875899,-478.02681)"
         id="path2423" />
    </clipPath>
    <clipPath
       clipPathUnits="userSpaceOnUse"
       id="clipPath2425">
      <path
         d="M 0,841.89 H 595.276 V 0 H 0 Z"
         transform="translate(-81.4443,-462.15721)"
         id="path2425" />
    </clipPath>
    <clipPath
       clipPathUnits="userSpaceOnUse"
       id="clipPath2427">
      <path
         d="M 0,841.89 H 595.276 V 0 H 0 Z"
         transform="translate(-66.468104,-442.18761)"
         id="path2427" />
    </clipPath>
    <clipPath
       clipPathUnits="userSpaceOnUse"
       id="clipPath2429">
      <path
         d="M 0,841.89 H 595.276 V 0 H 0 Z"
         transform="translate(-66.468104,-442.18761)"
         id="path2429" />
    </clipPath>
    <clipPath
       clipPathUnits="userSpaceOnUse"
       id="clipPath2431">
      <path
         d="M 0,841.89 H 595.276 V 0 H 0 Z"
         transform="translate(-80.879302,-515.79761)"
         id="path2431" />
    </clipPath>
    <clipPath
       clipPathUnits="userSpaceOnUse"
       id="clipPath2433">
      <path
         d="M 0,841.89 H 595.276 V 0 H 0 Z"
         transform="translate(-63.600404,-523.09681)"
         id="path2433" />
    </clipPath>
    <clipPath
       clipPathUnits="userSpaceOnUse"
       id="clipPath2435">
      <path
         d="M 0,841.89 H 595.276 V 0 H 0 Z"
         transform="translate(-75.467699,-516.34871)"
         id="path2435" />
    </clipPath>
    <clipPath
       clipPathUnits="userSpaceOnUse"
       id="clipPath2437">
      <path
         d="M 0,841.89 H 595.276 V 0 H 0 Z"
         transform="translate(-94.155802,-445.34371)"
         id="path2437" />
    </clipPath>
    <clipPath
       clipPathUnits="userSpaceOnUse"
       id="clipPath2439">
      <path
         d="M 0,841.89 H 595.276 V 0 H 0 Z"
         transform="translate(-83.4183,-464.33071)"
         id="path2439" />
    </clipPath>
    <clipPath
       clipPathUnits="userSpaceOnUse"
       id="clipPath2441">
      <path
         d="M 0,841.89 H 595.276 V 0 H 0 Z"
         transform="translate(-82.812105,-458.69631)"
         id="path2441" />
    </clipPath>
    <clipPath
       clipPathUnits="userSpaceOnUse"
       id="clipPath2443">
      <path
         d="M 0,841.89 H 595.276 V 0 H 0 Z"
         transform="translate(-51.871799,-453.19611)"
         id="path2443" />
    </clipPath>
    <clipPath
       clipPathUnits="userSpaceOnUse"
       id="clipPath2445">
      <path
         d="M 0,841.89 H 595.276 V 0 H 0 Z"
         transform="translate(-59.675804,-450.45011)"
         id="path2445" />
    </clipPath>
    <clipPath
       clipPathUnits="userSpaceOnUse"
       id="clipPath2447">
      <path
         d="M 0,841.89 H 595.276 V 0 H 0 Z"
         transform="translate(-59.874404,-450.45011)"
         id="path2447" />
    </clipPath>
  </defs>
  <g
     id="layer1"
     transform="translate(-83.343749,-114.56459)">
    <path
       id="path2376"
       d="m 0,0 c -6.358,-0.145 -3.846,-6.073 -3.846,-6.073 0,0 4.386,1.18 6.493,0.794"
       style="fill:#ef9fb8;fill-opacity:1;fill-rule:nonzero;stroke:none"
       transform="matrix(0.35277776,0,0,-0.35277776,90.885455,141.86163)"
       clip-path="url(#clipPath2377)" />
    <path
       id="path2378"
       d="m 0,0 c 0,0 -2.288,-1.164 -3.317,-3.736 -1.012,-2.528 -2.448,-9.662 -2.772,-12.495 -0.069,-0.601 0.401,-1.122 1.005,-1.122 H 6.025 l -7.161,-3.833 10.139,-3.307 c 0,0 11.071,1.012 3.056,3.812"
       style="fill:none;stroke:#706f6f;stroke-width:0.991;stroke-linecap:round;stroke-linejoin:round;stroke-miterlimit:10;stroke-dasharray:none;stroke-opacity:1"
       transform="matrix(0.35277776,0,0,-0.35277776,89.607269,132.37614)"
       clip-path="url(#clipPath2379)" />
    <path
       id="path2380"
       d="m 0,0 c 4.224,-0.846 8.721,-4.828 11.008,-6.53 0.485,-0.361 0.544,-1.061 0.13,-1.501 l -4.334,-5.369 6.675,-0.2 -6.274,-8.519 c 0,0 0.04,-2.425 -3.602,0.994 -3.641,3.418 -10.266,21.238 -10.266,21.238 0,0 3.32,0.487 6.663,-0.113"
       style="fill:#181716;fill-opacity:1;fill-rule:nonzero;stroke:none"
       transform="matrix(0.35277776,0,0,-0.35277776,95.158722,131.28112)"
       clip-path="url(#clipPath2381)" />
    <path
       id="path2382"
       d="m 0,0 c 4.224,-0.846 8.721,-4.828 11.008,-6.53 0.485,-0.361 0.544,-1.061 0.13,-1.501 l -4.334,-5.369 6.675,-0.2 -6.274,-8.519 c 0,0 0.04,-2.425 -3.602,0.994 -3.641,3.418 -10.266,21.238 -10.266,21.238 0,0 3.32,0.487 6.663,-0.113 z"
       style="fill:none;stroke:#706f6f;stroke-width:0.991;stroke-linecap:round;stroke-linejoin:round;stroke-miterlimit:10;stroke-dasharray:none;stroke-opacity:1"
       transform="matrix(0.35277776,0,0,-0.35277776,95.158722,131.28112)"
       clip-path="url(#clipPath2383)" />
    <path
       id="path2388"
       d="M 0,0 C 0,0 3.463,24.543 17.54,23.897 27.216,23.453 35.079,18.342 35.079,11.49 35.079,4.637 27.499,0.245 17.812,0.245 8.125,0.245 0,0 0,0"
       style="fill:#d84a8b;fill-opacity:1;fill-rule:nonzero;stroke:none"
       transform="matrix(0.35277776,0,0,-0.35277776,83.44135,149.32323)"
       clip-path="url(#clipPath2389)" />
    <path
       id="path2390"
       d="M 0,0 C 0,-8.105 -8.726,-14.676 -19.491,-14.676 -30.255,-14.676 -38.982,0 -38.982,0 c 0,0 8.727,14.676 19.491,14.676 C -8.726,14.676 0,8.105 0,0"
       style="fill:#ef9fb8;fill-opacity:1;fill-rule:nonzero;stroke:none"
       transform="matrix(0.35277776,0,0,-0.35277776,102.95822,144.28609)"
       clip-path="url(#clipPath2391)" />
    <path
       id="path2392"
       d="m 0,0 c -15.876,14.383 -21.623,50.433 -7.907,41.02 2.54,-1.743 11.612,-4.26 13.4,2.541 0.976,3.715 -1.309,4.545 -0.974,8.104 C 4.865,55.35 0.764,60.856 -7.077,62.917 -39.381,71.41 -26.46,25.785 -16.01,0 c -7.429,0 -16.107,-7.551 -16.107,-20.211 0,-12.66 14.406,-20.416 25.17,-20.416 10.765,0 19.491,9.141 19.491,20.416 C 12.544,-11.5 3.677,-3.331 0,0"
       style="fill:#e94d94;fill-opacity:1;fill-rule:nonzero;stroke:none"
       transform="matrix(0.35277776,0,0,-0.35277776,97.027244,137.18658)"
       clip-path="url(#clipPath2393)" />
    <path
       id="path2394"
       d="m 0,0 c -0.565,-2.345 -2.31,-3.89 -3.897,-3.452 -1.587,0.439 -2.416,2.694 -1.851,5.039 0.565,2.344 2.31,3.89 3.897,3.452 C -0.264,4.6 0.565,2.345 0,0"
       style="fill:#ffffff;fill-opacity:1;fill-rule:nonzero;stroke:#e94d94;stroke-width:0.631;stroke-linecap:butt;stroke-linejoin:miter;stroke-miterlimit:10;stroke-dasharray:none;stroke-opacity:1"
       transform="matrix(0.35277776,0,0,-0.35277776,98.323808,119.48317)"
       clip-path="url(#clipPath2395)" />
    <path
       id="path2396"
       d="m 0,0 c -0.259,-1.052 -1.117,-1.733 -1.917,-1.523 -0.799,0.211 -1.237,1.234 -0.978,2.286 0.259,1.051 1.117,1.733 1.917,1.523 C -0.179,2.075 0.259,1.052 0,0"
       style="fill:#393134;fill-opacity:1;fill-rule:nonzero;stroke:none"
       transform="matrix(0.35277776,0,0,-0.35277776,97.824735,118.943)"
       clip-path="url(#clipPath2397)" />
    <path
       id="path2398"
       d="m 0,0 c 0,0 -4.427,0.987 -5.442,-2.873 6.494,-9.412 5.765,-19.198 19.603,-22.836 6.424,-1.689 -3.084,-9.273 -1.348,-9.73 1.672,-0.44 11.555,14.944 11.801,23.899 0.083,2.985 -3.036,5.867 -5.046,6.395 C 15.367,-4.04 13.459,-5.198 9.589,-4.181 6.052,-3.251 0,0 0,0"
       style="fill:#f8e3eb;fill-opacity:1;fill-rule:nonzero;stroke:none"
       transform="matrix(0.35277776,0,0,-0.35277776,94.702969,118.54016)"
       clip-path="url(#clipPath2399)" />
    <path
       id="path2400"
       d="M 0,0 C -2.174,0.572 1.77,4.704 1.348,9.73 1.097,12.71 1.764,29.901 7.467,28.401 14.929,26.439 14.764,13.72 9.567,7.569 4.371,1.419 1.313,-0.345 0,0"
       style="fill:#393134;fill-opacity:1;fill-rule:nonzero;stroke:none"
       transform="matrix(0.35277776,0,0,-0.35277776,99.223251,131.04222)"
       clip-path="url(#clipPath2401)" />
    <path
       id="path2402"
       d="m 0,0 c 16.856,-4.432 20.054,-19.45 10.395,-29.993 0.09,-0.082 0.121,-0.096 0.223,-0.142 9.758,9.418 7.671,25.857 -10.39,30.605 C -0.37,0.628 -0.285,0.075 0,0"
       style="fill:#cf086e;fill-opacity:1;fill-rule:nonzero;stroke:none"
       transform="matrix(0.35277776,0,0,-0.35277776,95.407396,120.38678)"
       clip-path="url(#clipPath2403)" />
    <path
       id="path2404"
       d="M 0,0 C -0.431,-2.373 1.072,-4.562 3.357,-4.888 5.641,-5.214 7.843,-3.555 8.274,-1.182 8.704,1.192 7.202,3.38 4.917,3.706 2.632,4.033 0.431,2.373 0,0"
       style="fill:#ffffff;fill-opacity:1;fill-rule:nonzero;stroke:#e94d94;stroke-width:0.747;stroke-linecap:butt;stroke-linejoin:miter;stroke-miterlimit:10;stroke-dasharray:none;stroke-opacity:1"
       transform="matrix(0.35277776,0,0,-0.35277776,91.75872,117.86699)"
       clip-path="url(#clipPath2405)" />
    <path
       id="path2406"
       d="m 0,0 c -0.196,-1.065 0.285,-2.018 1.076,-2.128 0.79,-0.109 1.59,0.665 1.786,1.731 C 3.058,0.668 2.577,1.621 1.786,1.73 0.996,1.84 0.196,1.065 0,0"
       style="fill:#393134;fill-opacity:1;fill-rule:nonzero;stroke:none"
       transform="matrix(0.35277776,0,0,-0.35277776,92.597944,117.79989)"
       clip-path="url(#clipPath2407)" />
    <path
       id="path2408"
       d="M 0,0 C 0.004,0.004 0.008,0.008 0.012,0.012 0.073,-0.016 0.124,-0.05 0.198,-0.069 1.511,-0.415 4.569,1.349 9.766,7.5 c 3.921,4.641 4.975,13.022 2.05,17.699 -0.681,2.45 -3.164,4.579 -4.863,5.026 -3.406,0.896 -5.305,0.304 -7.965,0.59 -0.335,0.922 -0.632,1.917 -0.496,3.364 0.347,3.685 -3.755,9.191 -11.595,11.252 -32.304,8.493 -19.366,-36.997 -8.916,-62.781 -6.368,0 -13.432,-6.287 -15.384,-15.844 -4.194,-3.531 -7.117,-18.56 -7.117,-18.56 0,0 6.347,1.469 14.666,-0.558 4.988,-3.649 11.414,-5.666 16.898,-5.666 6.643,0 12.506,3.483 16.024,8.798 4.699,2.68 7.735,6.925 7.735,11.705 0,5.4 -3.876,10.115 -9.645,12.664 -3.053,3.882 -9.277,5.746 -10.514,6.867 -2.646,7.572 -3.532,8.6 -5.795,12.94 -8.348,16.011 -9.384,35.813 1.217,28.538 0.23,-0.158 0.514,-0.322 0.841,-0.485 C -10.383,17.156 -7.6,12.066 1.546,9.661 1.933,5.055 -1.334,1.208 -0.211,0.156 -0.215,0.151 -0.219,0.146 -0.223,0.142 -0.133,0.06 -0.102,0.046 0,0 Z"
       style="fill:none;stroke:#d2076f;stroke-width:0.614;stroke-linecap:round;stroke-linejoin:miter;stroke-miterlimit:10;stroke-dasharray:none;stroke-opacity:1"
       transform="matrix(0.35277776,0,0,-0.35277776,99.187585,131.06561)"
       clip-path="url(#clipPath2409)" />
    <path
       id="path2410"
       d="m 0,0 -4.824,38.349 c 0,0 -1.91,-2.397 -5.079,-2.837 -5.726,-0.796 -8.577,0.432 -8.577,0.432 L -17.016,0"
       style="fill:#ffffff;fill-opacity:1;fill-rule:nonzero;stroke:none"
       transform="matrix(0.35277776,0,0,-0.35277776,97.99456,150.29235)"
       clip-path="url(#clipPath2411)" />
    <path
       id="path2412"
       d="m 0,0 -4.51,-5.9 -3.515,-14.546 c -4.105,0.122 -13.107,-0.685 -16.402,3.664 -1.349,1.781 0.533,6.762 0.533,9.365 -3.323,3.283 -5.522,7.478 -5.522,12.423 0,12.666 8.674,20.215 16.112,20.215 L -3.04,12.646 Z"
       style="fill:#181716;fill-opacity:1;fill-rule:nonzero;stroke:#706f6f;stroke-width:0.991;stroke-linecap:round;stroke-linejoin:round;stroke-miterlimit:10;stroke-dasharray:none;stroke-opacity:1"
       transform="matrix(0.35277776,0,0,-0.35277776,96.074109,146.08286)"
       clip-path="url(#clipPath2413)" />
    <path
       id="path2414"
       d="m 0,0 c 0,-1.596 0.336,-5.643 -0.38,-6.877 -2.145,-3.703 -7.605,-3.132 -10.797,-3.436 l 0.52,14.959 1.879,5.647 5.498,2.114 C 0.399,9.084 3.151,23.823 3.151,15.108 3.151,9.606 3.384,3.678 0,0"
       style="fill:#181716;fill-opacity:1;fill-rule:nonzero;stroke:#706f6f;stroke-width:0.991;stroke-linecap:round;stroke-linejoin:round;stroke-miterlimit:10;stroke-dasharray:none;stroke-opacity:1"
       transform="matrix(0.35277776,0,0,-0.35277776,100.34226,149.64691)"
       clip-path="url(#clipPath2415)" />
    <path
       id="path2416"
       d="M 0,0 C 1.106,-3.371 21.491,-18.976 16.887,-36.663 15.682,-41.291 3.131,-15.921 1.095,-12.264 -0.669,-9.098 -0.532,-5.448 -2.72,-3.182 -1.655,-1.148 -0.502,-0.387 0,0"
       style="fill:#181716;fill-opacity:1;fill-rule:nonzero;stroke:none"
       transform="matrix(0.35277776,0,0,-0.35277776,89.618381,132.55288)"
       clip-path="url(#clipPath2417)" />
    <path
       id="path2418"
       d="m 0,0 c -0.396,-0.299 -0.9,-0.429 -2.709,-3.355 -1.432,-2.317 -2.448,-9.663 -2.772,-12.496 -0.069,-0.6 0.401,-1.122 1.005,-1.122 H 6.633 l -7.161,-3.832 10.139,-3.308 c 0,0 4.521,-1.594 7.969,-8.76"
       style="fill:#181716;fill-opacity:1;fill-rule:nonzero;stroke:#706f6f;stroke-width:0.991;stroke-linecap:round;stroke-linejoin:round;stroke-miterlimit:10;stroke-dasharray:none;stroke-opacity:1"
       transform="matrix(0.35277776,0,0,-0.35277776,89.392816,132.51037)"
       clip-path="url(#clipPath2419)" />
    <path
       id="path2420"
       d="m 0,0 c -4.633,9.982 -11.996,5.527 -11.996,5.527 0,0 2.224,-3.447 2.798,-10.112"
       style="fill:#ef9fb8;fill-opacity:1;fill-rule:nonzero;stroke:#d2076f;stroke-width:0.614;stroke-linecap:round;stroke-linejoin:miter;stroke-miterlimit:10;stroke-dasharray:none;stroke-opacity:1"
       transform="matrix(0.35277776,0,0,-0.35277776,93.848611,144.16093)"
       clip-path="url(#clipPath2421)" />
    <path
       id="path2422"
       d="m 0,0 c 0,0 7.396,-15.296 6.967,-34.283 -0.054,-2.399 11.151,-7.155 14.551,-0.404 1.688,3.353 -6.818,15.205 -6.818,15.205 l -1.616,1.589 -7.542,9.171 z"
       style="fill:#181716;fill-opacity:1;fill-rule:nonzero;stroke:none"
       transform="matrix(0.35277776,0,0,-0.35277776,93.778266,132.13318)"
       clip-path="url(#clipPath2423)" />
    <path
       id="path2424"
       d="M 0,0 C -4.847,-6.376 -4.623,-11.707 -4.905,-17.975"
       style="fill:none;stroke:#706f6f;stroke-width:0.991;stroke-linecap:round;stroke-linejoin:round;stroke-miterlimit:10;stroke-dasharray:none;stroke-opacity:1"
       transform="matrix(0.35277776,0,0,-0.35277776,98.564896,137.73162)"
       clip-path="url(#clipPath2425)" />
    <path
       id="path2426"
       d="m 0,0 c 1.042,-8.038 -0.653,-8.425 4.505,-9.353 3.191,-0.626 3.106,0.068 6.329,0.404 5.034,0.524 6.994,-4.337 6.994,-4.337 0,0 -1.752,16.023 -7.757,15.099 C 5.961,1.181 4.316,1.39 -0.18,1.39 c -9.312,0 0,0 0.18,-1.39"
       style="fill:#ef9fb8;fill-opacity:1;fill-rule:nonzero;stroke:none"
       transform="matrix(0.35277776,0,0,-0.35277776,93.281628,144.77646)"
       clip-path="url(#clipPath2427)" />
    <path
       id="path2428"
       d="m 0,0 c 1.042,-8.038 -0.653,-8.425 4.505,-9.353 3.191,-0.626 3.106,0.068 6.329,0.404 5.034,0.524 6.994,-4.337 6.994,-4.337 0,0 -1.752,16.023 -7.757,15.099 C 5.961,1.181 4.316,1.39 -0.18,1.39 c -9.312,0 0,0 0.18,-1.39 z"
       style="fill:none;stroke:#d2076f;stroke-width:0.614;stroke-linecap:round;stroke-linejoin:round;stroke-miterlimit:10;stroke-dasharray:none;stroke-opacity:1"
       transform="matrix(0.35277776,0,0,-0.35277776,93.281628,144.77646)"
       clip-path="url(#clipPath2429)" />
    <path
       id="path2430"
       d="M 0,0 -6.35,0.747 -5.482,4.05 -0.346,2.699 Z"
       style="fill:#e94d94;fill-opacity:1;fill-rule:nonzero;stroke:none"
       transform="matrix(0.35277776,0,0,-0.35277776,98.365578,118.80848)"
       clip-path="url(#clipPath2431)" />
    <path
       id="path2432"
       d="m 0,0 c 0.66,0.049 1.339,0.106 1.991,-0.04 0.572,-0.129 1.088,-0.407 1.565,-0.74 0.955,-0.666 1.75,-1.54 2.758,-2.134 0.575,-0.338 1.203,-0.567 1.872,-0.603 0.305,-0.017 0.304,0.458 0,0.474 C 6.982,-2.978 5.989,-2.175 5.111,-1.425 4.255,-0.694 3.366,0.087 2.253,0.384 1.517,0.58 0.751,0.531 0,0.474 -0.303,0.452 -0.305,-0.023 0,0"
       style="fill:#d2076f;fill-opacity:1;fill-rule:nonzero;stroke:none"
       transform="matrix(0.35277776,0,0,-0.35277776,92.269967,116.23349)"
       clip-path="url(#clipPath2433)" />
    <path
       id="path2434"
       d="M 0,0 C 0.704,-0.268 1.493,-0.295 2.237,-0.318 2.972,-0.34 3.733,-0.312 4.454,-0.435 4.617,-0.463 4.779,-0.499 4.935,-0.555 5.014,-0.583 5.021,-0.585 5.1,-0.627 5.13,-0.643 5.159,-0.66 5.188,-0.679 5.2,-0.687 5.212,-0.695 5.224,-0.703 c 0.041,-0.029 -0.022,0.019 0.02,-0.016 0.098,-0.082 0.239,-0.096 0.335,0 0.085,0.084 0.099,0.253 0,0.336 C 5.079,0.032 4.353,0.077 3.732,0.112 2.923,0.158 2.11,0.133 1.302,0.21 0.903,0.247 0.502,0.314 0.126,0.457 0.006,0.503 -0.134,0.407 -0.166,0.292 -0.202,0.158 -0.12,0.046 0,0"
       style="fill:#d2076f;fill-opacity:1;fill-rule:nonzero;stroke:none"
       transform="matrix(0.35277776,0,0,-0.35277776,96.456485,118.61407)"
       clip-path="url(#clipPath2435)" />
    <path
       id="path2436"
       d="M 0,0 C 0.147,-1.492 0.198,-3.338 0,-3.882"
       style="fill:#ef9fb8;fill-opacity:1;fill-rule:nonzero;stroke:#d2076f;stroke-width:0.991;stroke-linecap:round;stroke-linejoin:miter;stroke-miterlimit:10;stroke-dasharray:none;stroke-opacity:1"
       transform="matrix(0.35277776,0,0,-0.35277776,103.04923,143.66305)"
       clip-path="url(#clipPath2437)" />
    <path
       id="path2438"
       d="m 0,0 c 0,0 -3.7,-3.724 -2.94,-4.105 4.078,-1.939 2.334,-1.529 2.334,-1.529"
       style="fill:none;stroke:#706f6f;stroke-width:0.991;stroke-linecap:round;stroke-linejoin:round;stroke-miterlimit:10;stroke-dasharray:none;stroke-opacity:1"
       transform="matrix(0.35277776,0,0,-0.35277776,99.26128,136.96486)"
       clip-path="url(#clipPath2439)" />
    <path
       id="path2440"
       d="m 0,0 c 5.514,-0.058 19.794,-14.514 7.156,-24.599 -4.127,-3.293 -18.917,-1.666 -20.094,-1.513 2.722,5.917 -4.778,0.444 -3.18,2.914 5.569,0 15.496,7.558 18.238,9.476 C 5.748,-11.183 4.09,-6.65 0,0"
       style="fill:#181716;fill-opacity:1;fill-rule:nonzero;stroke:#706f6f;stroke-width:0.991;stroke-linecap:round;stroke-linejoin:round;stroke-miterlimit:10;stroke-dasharray:none;stroke-opacity:1"
       transform="matrix(0.35277776,0,0,-0.35277776,99.047428,138.95255)"
       clip-path="url(#clipPath2441)" />
    <path
       id="path2442"
       d="m 0,0 c -5.514,-0.058 -3.291,-12.992 3.045,-19.098 3.801,-3.664 16.333,2.968 19.085,4.402 0.889,2.114 0.524,4.728 -1.166,5.508 -5.569,0 -10.142,-0.952 -12.884,0.966 C 4.452,-5.683 6.68,0.07 0,0"
       style="fill:#181716;fill-opacity:1;fill-rule:nonzero;stroke:#706f6f;stroke-width:0.991;stroke-linecap:round;stroke-linejoin:round;stroke-miterlimit:10;stroke-dasharray:none;stroke-opacity:1"
       transform="matrix(0.35277776,0,0,-0.35277776,88.132376,140.8929)"
       clip-path="url(#clipPath2443)" />
    <path
       id="path2444"
       d="m 0,0 c -6.358,-0.145 -3.846,-6.073 -3.846,-6.073 0,0 4.386,1.18 6.493,0.794"
       style="fill:#ef9fb8;fill-opacity:1;fill-rule:nonzero;stroke:#d2076f;stroke-width:0.614;stroke-linecap:butt;stroke-linejoin:miter;stroke-miterlimit:10;stroke-dasharray:none;stroke-opacity:1"
       transform="matrix(0.35277776,0,0,-0.35277776,90.885455,141.86163)"
       clip-path="url(#clipPath2445)" />
    <path
       id="path2446"
       d="m 0,0 c -6.84,-0.089 -4.045,-6.073 -4.045,-6.073 0,0 4.386,1.18 6.493,0.794"
       style="fill:none;stroke:#d2076f;stroke-width:0.614;stroke-linecap:round;stroke-linejoin:miter;stroke-miterlimit:10;stroke-dasharray:none;stroke-opacity:1"
       transform="matrix(0.35277776,0,0,-0.35277776,90.955517,141.86163)"
       clip-path="url(#clipPath2447)" />
  </g>
</svg>
